<?xml version="1.0" encoding="utf-8"?>
<!-- Generator: Adobe Illustrator 24.1.2, SVG Export Plug-In . SVG Version: 6.00 Build 0)  -->
<svg version="1.1" id="Capa_1" xmlns="http://www.w3.org/2000/svg" xmlns:xlink="http://www.w3.org/1999/xlink" x="0px" y="0px"
	 viewBox="0 0 512 512" style="enable-background:new 0 0 512 512;" xml:space="preserve">
<g>
	<g>
		<path d="M287.4,452.8c0.3-1.8,0.4-3.7,0.4-5.5V131.8l3.2,6.9c3.2,6.7,7.5,12.8,12.8,18.1l88.5,88.5c11.1,11.7,29,13.6,42.4,4.6
			c14.2-10.5,17.3-30.5,6.9-44.8c-0.8-1.2-1.8-2.2-2.8-3.3l-160-160c-12.5-12.5-32.8-12.5-45.3,0l0,0l-160,160
			C61,214.3,61,234.6,73.6,247.1c1,1,2,1.9,3.1,2.7c13.4,9,31.3,7,42.4-4.6l88.6-88.3c4.7-4.7,8.6-10.1,11.7-16l4.3-9.6v314.2
			c-0.6,16.3,10.8,30.7,26.9,33.8C268.1,482.1,284.6,470.3,287.4,452.8z"/>
	</g>
</g>
</svg>
